{
	"asset":{
		"generator":"Khronos glTF Blender I/O v4.1.63",
		"version":"2.0"
	},
	"extensionsUsed":[
		"KHR_materials_specular"
	],
	"scene":0,
	"scenes":[
		{
			"name":"Scene",
			"nodes":[
				0
			]
		}
	],
	"nodes":[
		{
			"mesh":0,
			"name":"speaker",
			"rotation":[
				-0.02427547238767147,
				-0.024763749912381172,
				-0.0006015135440975428,
				0.999398410320282
			]
		}
	],
	"materials":[
		{
			"doubleSided":true,
			"extensions":{
				"KHR_materials_specular":{
					"specularFactor":0
				}
			},
			"name":"Fabric",
			"pbrMetallicRoughness":{
				"baseColorFactor":[
					0.9822442531585693,
					0.9386866092681885,
					0.8549931645393372,
					1
				],
				"metallicFactor":0
			}
		},
		{
			"doubleSided":true,
			"extensions":{
				"KHR_materials_specular":{
					"specularFactor":0
				}
			},
			"name":"Wood",
			"pbrMetallicRoughness":{
				"baseColorFactor":[
					0.9822442531585693,
					0.9386866092681885,
					0.8549931645393372,
					1
				],
				"metallicFactor":0
			}
		},
		{
			"doubleSided":true,
			"extensions":{
				"KHR_materials_specular":{
					"specularFactor":0
				}
			},
			"name":"Chrome",
			"pbrMetallicRoughness":{
				"baseColorFactor":[
					0.9822442531585693,
					0.9386866092681885,
					0.8549931645393372,
					1
				],
				"metallicFactor":0
			}
		},
		{
			"doubleSided":true,
			"extensions":{
				"KHR_materials_specular":{
					"specularFactor":0
				}
			},
			"name":"Plastic",
			"pbrMetallicRoughness":{
				"baseColorFactor":[
					0.9822442531585693,
					0.9386866092681885,
					0.8549931645393372,
					1
				],
				"metallicFactor":0
			}
		},
		{
			"doubleSided":true,
			"extensions":{
				"KHR_materials_specular":{
					"specularFactor":0
				}
			},
			"name":"Plastic_2",
			"pbrMetallicRoughness":{
				"baseColorFactor":[
					0.9822442531585693,
					0.9386866092681885,
					0.8549931645393372,
					1
				],
				"metallicFactor":0
			}
		}
	],
	"meshes":[
		{
			"name":"speaker",
			"primitives":[
				{
					"attributes":{
						"POSITION":0,
						"NORMAL":1,
						"TEXCOORD_0":2
					},
					"indices":3,
					"material":0
				},
				{
					"attributes":{
						"POSITION":4,
						"NORMAL":5,
						"TEXCOORD_0":6
					},
					"indices":7,
					"material":1
				},
				{
					"attributes":{
						"POSITION":8,
						"NORMAL":9,
						"TEXCOORD_0":10
					},
					"indices":11,
					"material":2
				},
				{
					"attributes":{
						"POSITION":12,
						"NORMAL":13,
						"TEXCOORD_0":14
					},
					"indices":15,
					"material":3
				},
				{
					"attributes":{
						"POSITION":16,
						"NORMAL":17,
						"TEXCOORD_0":18
					},
					"indices":19,
					"material":4
				}
			]
		}
	],
	"accessors":[
		{
			"bufferView":0,
			"componentType":5126,
			"count":6145,
			"max":[
				1.574809193611145,
				1.5964624881744385,
				2.8707706928253174
			],
			"min":[
				-1.5747898817062378,
				-1.5532376766204834,
				2.4770710468292236
			],
			"type":"VEC3"
		},
		{
			"bufferView":1,
			"componentType":5126,
			"count":6145,
			"type":"VEC3"
		},
		{
			"bufferView":2,
			"componentType":5126,
			"count":6145,
			"type":"VEC2"
		},
		{
			"bufferView":3,
			"componentType":5123,
			"count":8658,
			"type":"SCALAR"
		},
		{
			"bufferView":4,
			"componentType":5126,
			"count":10592,
			"max":[
				2.7559096813201904,
				2.7775614261627197,
				2.8707706928253174
			],
			"min":[
				-2.7558910846710205,
				-2.7343385219573975,
				-2.6411232948303223
			],
			"type":"VEC3"
		},
		{
			"bufferView":5,
			"componentType":5126,
			"count":10592,
			"type":"VEC3"
		},
		{
			"bufferView":6,
			"componentType":5126,
			"count":10592,
			"type":"VEC2"
		},
		{
			"bufferView":7,
			"componentType":5123,
			"count":15876,
			"type":"SCALAR"
		},
		{
			"bufferView":8,
			"componentType":5126,
			"count":1189,
			"max":[
				1.7717105150222778,
				1.7932627201080322,
				2.8707706928253174
			],
			"min":[
				-1.7715901136398315,
				-1.7500379085540771,
				2.4770710468292236
			],
			"type":"VEC3"
		},
		{
			"bufferView":9,
			"componentType":5126,
			"count":1189,
			"type":"VEC3"
		},
		{
			"bufferView":10,
			"componentType":5126,
			"count":1189,
			"type":"VEC2"
		},
		{
			"bufferView":11,
			"componentType":5123,
			"count":3072,
			"type":"SCALAR"
		},
		{
			"bufferView":12,
			"componentType":5126,
			"count":2250,
			"max":[
				2.3622100353240967,
				-2.7342374324798584,
				2.4770710468292236
			],
			"min":[
				-2.3621904850006104,
				-3.127937078475952,
				-2.2474236488342285
			],
			"type":"VEC3"
		},
		{
			"bufferView":13,
			"componentType":5126,
			"count":2250,
			"type":"VEC3"
		},
		{
			"bufferView":14,
			"componentType":5126,
			"count":2250,
			"type":"VEC2"
		},
		{
			"bufferView":15,
			"componentType":5123,
			"count":3024,
			"type":"SCALAR"
		},
		{
			"bufferView":16,
			"componentType":5126,
			"count":72231,
			"max":[
				1.574809193611145,
				1.5964624881744385,
				2.6738712787628174
			],
			"min":[
				-1.5747898817062378,
				-1.5532376766204834,
				2.4770710468292236
			],
			"type":"VEC3"
		},
		{
			"bufferView":17,
			"componentType":5126,
			"count":72231,
			"type":"VEC3"
		},
		{
			"bufferView":18,
			"componentType":5126,
			"count":72231,
			"type":"VEC2"
		},
		{
			"bufferView":19,
			"componentType":5125,
			"count":75648,
			"type":"SCALAR"
		}
	],
	"bufferViews":[
		{
			"buffer":0,
			"byteLength":73740,
			"byteOffset":0,
			"target":34962
		},
		{
			"buffer":0,
			"byteLength":73740,
			"byteOffset":73740,
			"target":34962
		},
		{
			"buffer":0,
			"byteLength":49160,
			"byteOffset":147480,
			"target":34962
		},
		{
			"buffer":0,
			"byteLength":17316,
			"byteOffset":196640,
			"target":34963
		},
		{
			"buffer":0,
			"byteLength":127104,
			"byteOffset":213956,
			"target":34962
		},
		{
			"buffer":0,
			"byteLength":127104,
			"byteOffset":341060,
			"target":34962
		},
		{
			"buffer":0,
			"byteLength":84736,
			"byteOffset":468164,
			"target":34962
		},
		{
			"buffer":0,
			"byteLength":31752,
			"byteOffset":552900,
			"target":34963
		},
		{
			"buffer":0,
			"byteLength":14268,
			"byteOffset":584652,
			"target":34962
		},
		{
			"buffer":0,
			"byteLength":14268,
			"byteOffset":598920,
			"target":34962
		},
		{
			"buffer":0,
			"byteLength":9512,
			"byteOffset":613188,
			"target":34962
		},
		{
			"buffer":0,
			"byteLength":6144,
			"byteOffset":622700,
			"target":34963
		},
		{
			"buffer":0,
			"byteLength":27000,
			"byteOffset":628844,
			"target":34962
		},
		{
			"buffer":0,
			"byteLength":27000,
			"byteOffset":655844,
			"target":34962
		},
		{
			"buffer":0,
			"byteLength":18000,
			"byteOffset":682844,
			"target":34962
		},
		{
			"buffer":0,
			"byteLength":6048,
			"byteOffset":700844,
			"target":34963
		},
		{
			"buffer":0,
			"byteLength":866772,
			"byteOffset":706892,
			"target":34962
		},
		{
			"buffer":0,
			"byteLength":866772,
			"byteOffset":1573664,
			"target":34962
		},
		{
			"buffer":0,
			"byteLength":577848,
			"byteOffset":2440436,
			"target":34962
		},
		{
			"buffer":0,
			"byteLength":302592,
			"byteOffset":3018284,
			"target":34963
		}
	],
	"buffers":[
		{
			"byteLength":3320876,
			"uri":"speaker.bin"
		}
	]
}
